<?xml version="1.0" standalone="no"?>
<!DOCTYPE svg PUBLIC "-//W3C//DTD SVG 20010904//EN"
 "http://www.w3.org/TR/2001/REC-SVG-20010904/DTD/svg10.dtd">
<svg version="1.0" xmlns="http://www.w3.org/2000/svg"
 width="840.000000pt" height="840.000000pt" viewBox="0 0 840.000000 840.000000"
 preserveAspectRatio="xMidYMid meet">
<metadata>
Created by potrace 1.11, written by Peter Selinger 2001-2013
</metadata>
<g transform="translate(0.000000,840.000000) scale(0.100000,-0.100000)"
fill="#000000" stroke="none">
<path d="M4050 8273 c-74 -69 -175 -157 -225 -196 -486 -378 -1030 -554 -1606
-517 -169 11 -234 20 -407 56 -141 29 -142 29 -168 -49 -108 -332 -360 -628
-727 -853 -159 -97 -159 -98 26 -250 422 -351 682 -696 781 -1037 42 -144 53
-283 34 -419 -9 -63 -28 -150 -43 -194 -14 -43 -115 -261 -225 -484 -214 -435
-304 -641 -380 -870 -297 -889 -166 -1585 404 -2150 l96 -95 49 50 c26 28 351
376 722 775 l673 724 -3 72 c-2 57 2 81 18 112 41 80 138 131 221 117 l37 -6
471 506 472 506 -6 42 c-17 125 81 237 210 237 l54 0 644 692 c1013 1090 1841
1982 1862 2006 18 21 18 22 -32 84 -107 136 -186 279 -232 420 -12 37 -27 72
-35 78 -10 8 -41 6 -122 -10 -354 -68 -742 -68 -1063 1 -130 28 -334 97 -457
153 -281 129 -486 269 -746 512 -71 66 -130 113 -142 114 -12 0 -75 -52 -155
-127z"/>
<path d="M6206 5335 c-509 -904 -926 -1649 -926 -1654 0 -8 422 -299 441 -304
4 -1 304 155 667 347 l659 349 -153 310 c-217 438 -247 530 -246 757 0 226 63
426 207 659 128 207 358 457 612 665 73 60 135 117 138 127 12 37 -7 58 -106
118 -113 68 -225 151 -304 223 -29 26 -55 48 -57 48 -3 0 -422 -740 -932
-1645z"/>
<path d="M6510 6296 c-118 -127 -579 -623 -1024 -1101 -445 -479 -817 -879
-827 -890 -18 -20 -18 -22 7 -70 21 -41 25 -61 22 -106 l-4 -57 240 -161 c174
-117 242 -158 248 -149 36 57 1559 2760 1557 2762 -2 2 -101 -101 -219 -228z"/>
<path d="M3888 3477 l-456 -491 16 -31 c8 -16 18 -57 21 -89 l6 -59 291 -158
291 -159 286 151 285 151 152 269 c83 148 150 276 148 284 -2 8 -91 142 -198
299 l-195 285 -58 1 c-36 0 -72 7 -95 19 l-37 19 -457 -491z"/>
<path d="M4715 3889 c5 -8 71 -106 148 -218 158 -230 138 -220 203 -103 19 34
32 67 29 73 -6 9 -358 249 -379 258 -5 2 -5 -3 -1 -10z"/>
<path d="M6423 3599 c-315 -166 -573 -305 -573 -308 1 -9 1433 -972 1438 -966
9 8 -273 1575 -283 1575 -5 0 -268 -136 -582 -301z"/>
<path d="M7163 3795 c29 -197 263 -1482 268 -1472 4 7 12 74 18 149 23 306
-33 659 -164 1036 -55 157 -128 329 -122 287z"/>
<path d="M5147 3461 c-31 -55 -58 -104 -59 -109 -4 -11 152 -234 161 -230 34
15 341 180 341 183 0 7 -367 255 -377 255 -5 0 -34 -45 -66 -99z"/>
<path d="M4925 3068 c-47 -83 -84 -153 -82 -154 6 -6 277 141 277 149 0 9
-100 157 -106 157 -1 0 -41 -68 -89 -152z"/>
<path d="M5510 3120 c-102 -55 -186 -103 -188 -108 -2 -8 107 -168 965 -1410
l354 -512 61 47 c93 72 281 257 350 342 91 113 183 257 237 373 48 101 99 244
90 251 -37 32 -1662 1117 -1671 1116 -7 0 -96 -45 -198 -99z"/>
<path d="M4960 2825 l-236 -126 -122 -216 c-67 -119 -120 -218 -118 -220 3 -3
1810 -983 1880 -1020 l30 -16 -16 24 c-92 139 -1171 1695 -1176 1696 -4 2
-113 -54 -242 -122z"/>
<path d="M3361 2669 c-62 -34 -119 -37 -182 -13 -39 16 -41 16 -58 -2 -10 -10
-195 -210 -412 -444 -217 -233 -480 -517 -585 -630 -106 -113 -190 -207 -188
-209 5 -6 1982 1044 1978 1051 -2 3 -102 59 -221 123 -120 65 -231 125 -248
135 -29 17 -31 17 -84 -11z"/>
<path d="M4348 2502 c-81 -42 -148 -80 -148 -84 0 -9 151 -89 162 -86 11 4
149 248 140 248 -4 -1 -73 -35 -154 -78z"/>
<path d="M3320 1959 c-404 -214 -901 -479 -1105 -587 -338 -179 -367 -197
-340 -204 17 -4 392 -37 835 -73 443 -36 830 -68 861 -71 l56 -6 331 588 c182
324 332 595 334 602 2 8 -43 39 -112 77 -63 35 -117 64 -120 64 -3 1 -336
-175 -740 -390z"/>
<path d="M4406 2141 c-4 -5 -148 -261 -321 -568 l-315 -558 27 -7 c16 -4 561
-51 1213 -104 l1185 -98 75 44 c121 69 250 151 250 158 -1 6 -2073 1131 -2099
1140 -5 2 -12 -1 -15 -7z"/>
<path d="M1850 1035 c0 -8 179 -122 287 -184 143 -81 401 -202 593 -279 210
-83 516 -186 533 -179 16 6 292 495 284 503 -3 3 -218 23 -479 45 -260 21
-635 52 -834 69 -397 33 -384 32 -384 25z"/>
<path d="M3692 876 c-20 -25 -254 -447 -251 -451 2 -2 157 18 344 45 187 26
669 95 1072 151 403 57 731 105 729 106 -2 2 -408 37 -902 78 -494 41 -918 76
-941 78 -25 3 -46 0 -51 -7z"/>
<path d="M4680 470 c-613 -87 -1126 -160 -1140 -162 -17 -2 15 -18 105 -52
164 -61 376 -154 480 -211 l81 -44 106 54 c189 98 492 223 674 281 401 125
780 259 809 285 5 5 7 9 5 8 -3 -1 -507 -72 -1120 -159z"/>
</g>
</svg>
